<svg width="153" height="46" viewBox="0 0 153 46" fill="none" xmlns="http://www.w3.org/2000/svg">
    <path
        d="M36.24 6.79C36.62 6.79 36.96 6.8 37.26 6.82L38.07 27.82C37.73 27.88 37.36 27.92 36.96 27.94C36.58 27.96 36.2 27.97 35.82 27.97C35.46 27.97 35.1 27.97 34.74 27.97C34.4 27.97 34.11 27.98 33.87 28H33.84C33.74 27.34 33.67 26.66 33.63 25.96C33.61 25.24 33.59 24.53 33.57 23.83C33.57 23.13 33.56 22.43 33.54 21.73C33.52 21.03 33.47 20.36 33.39 19.72L33.36 19.69C32.78 19.59 32.2 19.54 31.62 19.54C31.04 19.54 30.46 19.61 29.88 19.75C29.82 20.45 29.79 21.14 29.79 21.82C29.81 22.5 29.83 23.18 29.85 23.86C29.87 24.54 29.87 25.21 29.85 25.87C29.85 26.51 29.8 27.15 29.7 27.79C29.46 27.93 29.14 28 28.74 28C28.34 28 27.94 27.98 27.54 27.94C27.14 27.9 26.76 27.87 26.4 27.85C26.06 27.83 25.8 27.87 25.62 27.97C25.58 27.41 25.53 26.65 25.47 25.69C25.43 24.71 25.39 23.62 25.35 22.42C25.31 21.2 25.27 19.91 25.23 18.55C25.21 17.19 25.19 15.83 25.17 14.47C25.15 13.09 25.14 11.77 25.14 10.51C25.16 9.23 25.18 8.08 25.2 7.06V7.03H25.23H25.29C25.59 7.09 25.9 7.11 26.22 7.09C26.56 7.07 26.89 7.05 27.21 7.03C27.55 7.01 27.88 7 28.2 7C28.52 7 28.82 7.04 29.1 7.12C29.28 8.5 29.37 9.84 29.37 11.14C29.37 12.44 29.49 13.73 29.73 15.01H29.76C30.26 15.13 30.8 15.17 31.38 15.13C31.96 15.07 32.5 15.02 33 14.98H33.03C33.15 13.6 33.21 12.31 33.21 11.11C33.23 9.91 33.21 8.59 33.15 7.15C33.39 7.07 33.68 7 34.02 6.94C34.38 6.88 34.75 6.84 35.13 6.82C35.51 6.78 35.88 6.77 36.24 6.79ZM49.5007 16.09C49.6407 16.67 49.7507 17.13 49.8307 17.47L52.0807 27.97V28C51.4807 28.12 50.8207 28.16 50.1007 28.12C49.3807 28.1 48.7007 28.02 48.0607 27.88H48.0307C47.9107 27.56 47.7907 27.18 47.6707 26.74C47.5707 26.3 47.4607 25.85 47.3407 25.39C47.2407 24.93 47.1307 24.49 47.0107 24.07C46.8907 23.65 46.7607 23.29 46.6207 22.99C46.3607 22.95 46.1607 22.93 46.0207 22.93C45.8807 22.93 45.7507 22.93 45.6307 22.93C45.5307 22.93 45.4107 22.94 45.2707 22.96C45.1507 22.96 44.9807 22.96 44.7607 22.96C44.6207 23.28 44.5007 23.66 44.4007 24.1C44.3207 24.52 44.2307 24.97 44.1307 25.45C44.0507 25.91 43.9607 26.36 43.8607 26.8C43.7607 27.24 43.6207 27.63 43.4407 27.97C43.4207 27.97 43.4007 27.98 43.3807 28C43.3807 28 43.3707 28 43.3507 28C43.1907 28.04 42.7907 28.04 42.1507 28C41.5107 27.96 40.5107 27.95 39.1507 27.97C39.1307 27.97 39.1107 27.96 39.0907 27.94C39.1307 27.8 39.2007 27.41 39.3007 26.77C39.4007 26.13 39.5407 25.3 39.7207 24.28C39.9007 23.26 40.1107 22.09 40.3507 20.77C40.6107 19.43 40.9107 18.01 41.2507 16.51C41.5907 15.01 41.9607 13.45 42.3607 11.83C42.7607 10.21 43.2007 8.6 43.6807 7C43.8207 6.98 43.9707 6.97 44.1307 6.97C44.2907 6.97 44.5007 6.97 44.7607 6.97C45.0207 6.97 45.3507 6.97 45.7507 6.97C46.1707 6.95 46.7107 6.91 47.3707 6.85C47.4307 7.11 47.5207 7.51 47.6407 8.05C47.7807 8.57 47.9207 9.17 48.0607 9.85C48.2207 10.51 48.3807 11.22 48.5407 11.98C48.7207 12.74 48.8907 13.47 49.0507 14.17C49.2107 14.87 49.3607 15.51 49.5007 16.09ZM45.6307 19.45C46.0107 19.43 46.3907 19.42 46.7707 19.42C46.5707 17.7 46.3907 16.36 46.2307 15.4C46.0907 14.44 45.9607 13.79 45.8407 13.45C45.7407 13.11 45.6307 13.04 45.5107 13.24C45.4107 13.42 45.3107 13.8 45.2107 14.38C45.1307 14.96 45.0307 15.69 44.9107 16.57C44.8107 17.45 44.6907 18.4 44.5507 19.42C44.8907 19.44 45.2507 19.45 45.6307 19.45ZM65.7185 10.36C66.1785 11.16 66.4385 12.13 66.4985 13.27V13.3C66.4985 13.44 66.4985 13.58 66.4985 13.72C66.4985 13.84 66.4885 13.96 66.4685 14.08C66.3485 15.04 66.0285 15.92 65.5085 16.72C65.0085 17.52 64.3785 18.2 63.6185 18.76C62.8585 19.32 62.0185 19.73 61.0985 19.99C60.1785 20.23 59.2385 20.27 58.2785 20.11C58.2985 20.39 58.3085 20.67 58.3085 20.95C58.3085 21.21 58.3085 21.6 58.3085 22.12C58.3085 22.62 58.3085 23.3 58.3085 24.16C58.3285 25.02 58.3585 26.18 58.3985 27.64V27.67C58.3785 27.67 58.3585 27.68 58.3385 27.7C58.3385 27.7 58.3285 27.7 58.3085 27.7C58.0285 27.78 57.6685 27.84 57.2285 27.88C56.8085 27.9 56.3585 27.92 55.8785 27.94C55.4185 27.94 54.9585 27.93 54.4985 27.91C54.0385 27.89 53.6385 27.86 53.2985 27.82C53.2385 26.36 53.2085 24.78 53.2085 23.08C53.2085 21.36 53.2085 19.6 53.2085 17.8C53.2085 16 53.1985 14.19 53.1785 12.37C53.1785 10.55 53.1485 8.81 53.0885 7.15C53.9085 6.93 54.7985 6.77 55.7585 6.67C56.7385 6.57 57.7085 6.56 58.6685 6.64C59.6485 6.72 60.5985 6.9 61.5185 7.18C62.4385 7.44 63.2485 7.84 63.9485 8.38C64.6685 8.9 65.2585 9.56 65.7185 10.36ZM61.8485 12.61C61.7085 12.37 61.5085 12.17 61.2485 12.01C60.7485 11.61 60.1685 11.36 59.5085 11.26C58.8485 11.14 58.1985 11.16 57.5585 11.32C57.5185 11.32 57.4885 11.33 57.4685 11.35C57.4885 11.71 57.4885 12.09 57.4685 12.49C57.4685 12.89 57.4685 13.29 57.4685 13.69C57.4885 14.09 57.5085 14.48 57.5285 14.86C57.5685 15.22 57.6385 15.55 57.7385 15.85H57.8285C58.1485 15.83 58.4885 15.82 58.8485 15.82C59.2085 15.8 59.5585 15.77 59.8985 15.73C60.2585 15.69 60.5985 15.62 60.9185 15.52C61.2585 15.4 61.5485 15.22 61.7885 14.98C61.9485 14.76 62.0585 14.51 62.1185 14.23C62.1985 13.95 62.2085 13.67 62.1485 13.39C62.1085 13.11 62.0085 12.85 61.8485 12.61ZM80.6306 10.36C81.0906 11.16 81.3506 12.13 81.4106 13.27V13.3C81.4106 13.44 81.4106 13.58 81.4106 13.72C81.4106 13.84 81.4006 13.96 81.3806 14.08C81.2606 15.04 80.9406 15.92 80.4206 16.72C79.9206 17.52 79.2906 18.2 78.5306 18.76C77.7706 19.32 76.9306 19.73 76.0106 19.99C75.0906 20.23 74.1506 20.27 73.1906 20.11C73.2106 20.39 73.2206 20.67 73.2206 20.95C73.2206 21.21 73.2206 21.6 73.2206 22.12C73.2206 22.62 73.2206 23.3 73.2206 24.16C73.2406 25.02 73.2706 26.18 73.3106 27.64V27.67C73.2906 27.67 73.2706 27.68 73.2506 27.7C73.2506 27.7 73.2406 27.7 73.2206 27.7C72.9406 27.78 72.5806 27.84 72.1406 27.88C71.7206 27.9 71.2706 27.92 70.7906 27.94C70.3306 27.94 69.8706 27.93 69.4106 27.91C68.9506 27.89 68.5506 27.86 68.2106 27.82C68.1506 26.36 68.1206 24.78 68.1206 23.08C68.1206 21.36 68.1206 19.6 68.1206 17.8C68.1206 16 68.1106 14.19 68.0906 12.37C68.0906 10.55 68.0606 8.81 68.0006 7.15C68.8206 6.93 69.7106 6.77 70.6706 6.67C71.6506 6.57 72.6206 6.56 73.5806 6.64C74.5606 6.72 75.5106 6.9 76.4306 7.18C77.3506 7.44 78.1606 7.84 78.8606 8.38C79.5806 8.9 80.1706 9.56 80.6306 10.36ZM76.7606 12.61C76.6206 12.37 76.4206 12.17 76.1606 12.01C75.6606 11.61 75.0806 11.36 74.4206 11.26C73.7606 11.14 73.1106 11.16 72.4706 11.32C72.4306 11.32 72.4006 11.33 72.3806 11.35C72.4006 11.71 72.4006 12.09 72.3806 12.49C72.3806 12.89 72.3806 13.29 72.3806 13.69C72.4006 14.09 72.4206 14.48 72.4406 14.86C72.4806 15.22 72.5506 15.55 72.6506 15.85H72.7406C73.0606 15.83 73.4006 15.82 73.7606 15.82C74.1206 15.8 74.4706 15.77 74.8106 15.73C75.1706 15.69 75.5106 15.62 75.8306 15.52C76.1706 15.4 76.4606 15.22 76.7006 14.98C76.8606 14.76 76.9706 14.51 77.0306 14.23C77.1106 13.95 77.1206 13.67 77.0606 13.39C77.0206 13.11 76.9206 12.85 76.7606 12.61ZM91.7327 23.89C93.0127 23.95 94.3327 23.96 95.6927 23.92V23.98C95.7327 24.62 95.7427 25.29 95.7227 25.99C95.7027 26.67 95.6127 27.31 95.4527 27.91C93.4127 27.89 91.3327 27.92 89.2127 28C87.1127 28.06 85.0927 28.01 83.1527 27.85C83.1527 26.11 83.1327 24.39 83.0927 22.69C83.0527 20.97 83.0227 19.26 83.0027 17.56C82.9827 15.86 82.9827 14.16 83.0027 12.46C83.0227 10.76 83.0827 9.05 83.1827 7.33C83.9627 7.29 84.8027 7.26 85.7027 7.24C86.6227 7.2 87.5427 7.17 88.4627 7.15C89.3827 7.13 90.2727 7.11 91.1327 7.09C91.9927 7.07 92.7527 7.06 93.4127 7.06C94.0727 7.06 94.6027 7.07 95.0027 7.09C95.4027 7.11 95.6027 7.13 95.6027 7.15C95.7027 7.85 95.7227 8.56 95.6627 9.28C95.6227 10 95.6027 10.71 95.6027 11.41V11.44C94.9627 11.58 94.3127 11.67 93.6527 11.71C93.0127 11.73 92.3627 11.74 91.7027 11.74C91.0427 11.72 90.3827 11.71 89.7227 11.71C89.0627 11.71 88.4027 11.74 87.7427 11.8H87.6527L87.6227 11.83C87.6427 12.41 87.6127 13.01 87.5327 13.63C87.4727 14.23 87.5127 14.8 87.6527 15.34L87.6827 15.37C88.2827 15.41 88.8927 15.43 89.5127 15.43C90.1327 15.43 90.7527 15.44 91.3727 15.46V15.49C91.4727 16.17 91.5027 16.85 91.4627 17.53C91.4227 18.21 91.4127 18.92 91.4327 19.66C91.1327 19.74 90.7927 19.79 90.4127 19.81C90.0327 19.81 89.6627 19.81 89.3027 19.81C88.9627 19.81 88.6527 19.82 88.3727 19.84C88.0927 19.86 87.9027 19.91 87.8027 19.99C87.7027 20.57 87.6627 21.22 87.6827 21.94C87.7227 22.66 87.7627 23.26 87.8027 23.74L87.8327 23.77C89.1527 23.77 90.4527 23.81 91.7327 23.89ZM109.686 28.09C109.546 28.13 109.306 28.15 108.966 28.15C108.566 28.15 108.106 28.12 107.586 28.06C107.066 28.02 106.606 28 106.206 28C105.546 26.52 104.886 25.09 104.226 23.71C103.586 22.31 103.036 20.97 102.576 19.69L102.276 18.79C102.196 18.57 102.116 18.37 102.036 18.19C101.976 17.99 101.926 17.89 101.886 17.89C101.866 17.89 101.836 18.13 101.796 18.61C101.776 19.09 101.756 19.7 101.736 20.44C101.716 21.18 101.696 22 101.676 22.9C101.676 23.8 101.676 24.67 101.676 25.51C101.676 25.97 101.676 26.42 101.676 26.86C101.676 27.28 101.686 27.66 101.706 28C101.486 28.06 101.266 28.1 101.046 28.12C100.826 28.14 100.606 28.15 100.386 28.15C99.9061 28.15 99.4161 28.12 98.9161 28.06C98.4361 28 97.9661 27.97 97.5061 27.97V25.87C97.5061 23.97 97.4861 22.16 97.4461 20.44C97.4261 18.72 97.4161 16.92 97.4161 15.04C97.4161 13.66 97.4361 12.3 97.4761 10.96C97.5161 9.6 97.5861 8.28 97.6861 7C97.8861 6.96 98.0961 6.93 98.3161 6.91C98.5561 6.89 98.7961 6.88 99.0361 6.88C99.1561 6.88 99.3561 6.89 99.6361 6.91C99.9161 6.91 100.196 6.93 100.476 6.97C100.756 6.99 100.996 7.02 101.196 7.06C101.416 7.1 101.526 7.14 101.526 7.18C101.666 7.54 101.796 7.84 101.916 8.08C102.036 8.32 102.146 8.55 102.246 8.77C102.366 8.99 102.486 9.24 102.606 9.52C102.746 9.78 102.906 10.12 103.086 10.54C103.126 10.64 103.216 10.83 103.356 11.11C103.496 11.39 103.656 11.72 103.836 12.1C104.016 12.46 104.206 12.85 104.406 13.27C104.606 13.67 104.786 14.04 104.946 14.38C105.126 14.7 105.276 14.98 105.396 15.22C105.516 15.44 105.586 15.55 105.606 15.55C105.666 15.51 105.716 15.31 105.756 14.95C105.796 14.59 105.816 14.24 105.816 13.9C105.816 13.1 105.796 12.36 105.756 11.68C105.736 10.98 105.726 10.27 105.726 9.55C105.726 9.13 105.726 8.71 105.726 8.29C105.746 7.85 105.766 7.38 105.786 6.88C106.466 6.76 107.186 6.7 107.946 6.7C108.686 6.7 109.346 6.76 109.926 6.88V16.54C109.946 17.38 109.956 18.23 109.956 19.09C109.956 19.95 109.956 20.81 109.956 21.67C109.956 22.25 109.946 22.81 109.926 23.35C109.926 23.89 109.926 24.44 109.926 25C109.926 25.4 109.926 25.8 109.926 26.2C109.946 26.6 109.956 27 109.956 27.4V28C109.916 28.02 109.826 28.05 109.686 28.09ZM115.058 6.91C115.538 6.93 116.228 6.93 117.128 6.91H117.848V7.03C117.848 8.75 117.818 10.48 117.758 12.22C117.718 13.96 117.678 15.71 117.638 17.47C117.618 19.21 117.618 20.95 117.638 22.69C117.658 24.43 117.718 26.15 117.818 27.85C117.658 28.01 117.318 28.1 116.798 28.12C116.298 28.16 115.748 28.17 115.147 28.15C114.568 28.13 114.008 28.1 113.468 28.06C112.928 28.04 112.558 28.06 112.358 28.12C112.498 26.32 112.558 24.51 112.538 22.69C112.518 20.87 112.478 19.07 112.418 17.29C112.378 15.49 112.348 13.72 112.328 11.98C112.328 10.22 112.418 8.5 112.598 6.82V6.76C112.698 6.74 112.888 6.75 113.167 6.79C113.468 6.81 113.688 6.82 113.828 6.82C114.188 6.84 114.598 6.87 115.058 6.91ZM132.57 9.58C132.51 10.4 132.49 11.19 132.51 11.95V11.98C131.35 13.94 130.09 15.86 128.73 17.74C127.37 19.62 126.06 21.53 124.8 23.47L124.77 23.5C125.57 23.4 126.25 23.33 126.81 23.29C127.39 23.25 127.94 23.23 128.46 23.23C129 23.21 129.56 23.2 130.14 23.2C130.74 23.18 131.47 23.15 132.33 23.11V23.2C132.43 23.96 132.46 24.77 132.42 25.63C132.38 26.49 132.33 27.28 132.27 28V28.06C130.37 27.96 128.38 27.9 126.3 27.88C124.24 27.86 122.14 27.91 120 28.03C119.88 27.67 119.81 27.3 119.79 26.92C119.77 26.52 119.76 26.12 119.76 25.72C119.76 25.3 119.76 24.89 119.76 24.49C119.78 24.07 119.77 23.65 119.73 23.23C120.17 22.25 120.69 21.27 121.29 20.29C121.89 19.31 122.52 18.34 123.18 17.38C123.86 16.42 124.53 15.48 125.19 14.56C125.87 13.64 126.5 12.77 127.08 11.95C126.62 11.89 126.05 11.84 125.37 11.8C124.71 11.76 124.03 11.73 123.33 11.71C122.63 11.67 121.96 11.64 121.32 11.62C120.7 11.58 120.21 11.56 119.85 11.56C119.73 11.36 119.66 11.09 119.64 10.75C119.62 10.41 119.61 10.05 119.61 9.67C119.61 9.29 119.6 8.91 119.58 8.53C119.58 8.13 119.53 7.77 119.43 7.45V7.42C119.43 7.38 119.41 7.34 119.37 7.3C121.43 7.1 123.56 7.03 125.76 7.09C127.96 7.13 130.21 7.16 132.51 7.18C132.61 7.96 132.63 8.76 132.57 9.58ZM143.119 23.89C144.399 23.95 145.719 23.96 147.079 23.92V23.98C147.119 24.62 147.129 25.29 147.109 25.99C147.089 26.67 146.999 27.31 146.839 27.91C144.799 27.89 142.719 27.92 140.599 28C138.499 28.06 136.479 28.01 134.539 27.85C134.539 26.11 134.519 24.39 134.479 22.69C134.439 20.97 134.409 19.26 134.389 17.56C134.369 15.86 134.369 14.16 134.389 12.46C134.409 10.76 134.469 9.05 134.569 7.33C135.349 7.29 136.189 7.26 137.089 7.24C138.009 7.2 138.929 7.17 139.849 7.15C140.769 7.13 141.659 7.11 142.519 7.09C143.379 7.07 144.139 7.06 144.799 7.06C145.459 7.06 145.989 7.07 146.389 7.09C146.789 7.11 146.989 7.13 146.989 7.15C147.089 7.85 147.109 8.56 147.049 9.28C147.009 10 146.989 10.71 146.989 11.41V11.44C146.349 11.58 145.699 11.67 145.039 11.71C144.399 11.73 143.749 11.74 143.089 11.74C142.429 11.72 141.769 11.71 141.109 11.71C140.449 11.71 139.789 11.74 139.129 11.8H139.039L139.009 11.83C139.029 12.41 138.999 13.01 138.919 13.63C138.859 14.23 138.899 14.8 139.039 15.34L139.069 15.37C139.669 15.41 140.279 15.43 140.899 15.43C141.519 15.43 142.139 15.44 142.759 15.46V15.49C142.859 16.17 142.889 16.85 142.849 17.53C142.809 18.21 142.799 18.92 142.819 19.66C142.519 19.74 142.179 19.79 141.799 19.81C141.419 19.81 141.049 19.81 140.689 19.81C140.349 19.81 140.039 19.82 139.759 19.84C139.479 19.86 139.289 19.91 139.189 19.99C139.089 20.57 139.049 21.22 139.069 21.94C139.109 22.66 139.149 23.26 139.189 23.74L139.219 23.77C140.539 23.77 141.839 23.81 143.119 23.89Z"
        fill="black" />
    <path
        d="M21 20.5V26.75C21 27.4402 20.4122 28 19.6875 28H13.125C12.4003 28 11.8125 27.4402 11.8125 26.75V20.5C11.8125 19.8097 12.4003 19.25 13.125 19.25H19.6875C20.4122 19.25 21 19.8097 21 20.5ZM5.25 18C2.35061 18 0 20.2386 0 23C0 25.7613 2.35061 28 5.25 28C8.14939 28 10.5 25.7613 10.5 23C10.5 20.2386 8.14939 18 5.25 18ZM19.6477 16.7499C20.6871 16.7499 21.3367 15.7081 20.8171 14.8749L16.9194 8.62491C16.3997 7.7917 15.1003 7.7917 14.5806 8.62491L10.6829 14.8749C10.1633 15.7081 10.8129 16.7499 11.8523 16.7499H19.6477Z"
        fill="black" />
</svg>